<svg width="192" height="29" fill="none" xmlns="http://www.w3.org/2000/svg">
  <path
    d="M4 21.5h12"
    stroke="#3B82F6"
    stroke-width="4"
    stroke-linecap="round"
  />
  <path
    d="M8 14.5h12"
    stroke="#0F172A"
    stroke-width="4"
    stroke-linecap="round"
  />
  <path
    d="M4 7.5h12"
    stroke="#10B981"
    stroke-width="4"
    stroke-linecap="round"
  />
  <path
    d="M41.375 13.758h-1.102c-.03-.781-.293-1.383-.785-1.805-.484-.43-1.187-.644-2.11-.644-.39 0-.73.046-1.019.14a2.29 2.29 0 0 0-.726.375 1.504 1.504 0 0 0-.574 1.184c0 .242.062.457.187.644.133.18.316.34.55.48.235.141.513.266.833.376.328.11.687.215 1.078.316a20.87 20.87 0 0 1 1.711.516c.516.18.95.394 1.3.644.36.243.637.54.833.891.195.344.293.77.293 1.277 0 .5-.102.942-.305 1.325a2.783 2.783 0 0 1-.867.972c-.367.258-.813.453-1.336.586a6.749 6.749 0 0 1-1.746.211c-.813 0-1.488-.098-2.028-.293a2.979 2.979 0 0 1-1.324-.926l-.117.973a11.64 11.64 0 0 0-.516-.012 3.852 3.852 0 0 0-.515.012v-3.48h1.137c.046.906.34 1.57.879 1.992.538.414 1.277.62 2.214.62.399 0 .762-.038 1.09-.116.336-.086.621-.2.856-.34a1.67 1.67 0 0 0 .55-.516c.133-.203.2-.445.2-.726 0-.305-.094-.563-.282-.774a2.308 2.308 0 0 0-.738-.55 5.35 5.35 0 0 0-1.078-.422 98.562 98.562 0 0 0-1.29-.387 15.387 15.387 0 0 1-1.464-.528 4.557 4.557 0 0 1-1.043-.632 2.278 2.278 0 0 1-.633-.82c-.14-.313-.21-.68-.21-1.102 0-.406.085-.79.257-1.149.18-.36.434-.675.762-.949a3.39 3.39 0 0 1 1.184-.644 4.945 4.945 0 0 1 1.57-.235c.64 0 1.246.094 1.816.281.57.18 1.031.454 1.383.82 0-.007.012-.05.035-.128.031-.086.063-.18.094-.281.031-.118.07-.258.117-.422.14.008.273.011.398.011h.294c.093-.007.156-.011.187-.011v3.246Zm5.531-6.211v2.965h2.813v1.043h-2.801v5.87c0 .4.004.759.012 1.079.008.312.043.582.105.808.07.227.18.403.328.528.149.117.364.176.645.176.11 0 .219-.02.328-.059a.7.7 0 0 0 .281-.223 1.06 1.06 0 0 0 .2-.386 1.93 1.93 0 0 0 .081-.598l1.067-.105c0 .46-.067.855-.2 1.183a2.181 2.181 0 0 1-.515.809c-.21.203-.46.355-.75.457a2.74 2.74 0 0 1-.914.152c-.547 0-.992-.09-1.336-.27a2.075 2.075 0 0 1-.797-.738c-.187-.32-.316-.71-.387-1.172-.07-.46-.105-.972-.105-1.535v-5.976h-1.922v-.926c.195-.008.414-.02.656-.035.242-.024.473-.043.692-.059l.773-.07a18.82 18.82 0 0 0 .082-.797c.016-.195.035-.395.059-.598a29.185 29.185 0 0 0 .093-1.02 5.79 5.79 0 0 0 .024-.198l1.488-.305Zm14.918 8.566h-8.297c.008.625.106 1.176.293 1.653.188.476.453.882.797 1.218.344.328.754.582 1.23.762.485.18 1.02.27 1.606.27.82 0 1.531-.168 2.133-.504.602-.336 1.066-.856 1.395-1.559l1.417.223A4.247 4.247 0 0 1 60.5 20.46c-.898.523-2.004.785-3.316.785-.883 0-1.676-.133-2.38-.398a5.078 5.078 0 0 1-1.792-1.125 4.975 4.975 0 0 1-1.114-1.7c-.257-.656-.386-1.402-.386-2.238 0-.844.133-1.601.398-2.273.266-.68.64-1.262 1.125-1.746a5.017 5.017 0 0 1 1.746-1.125c.688-.266 1.45-.399 2.285-.399.844 0 1.602.13 2.274.387.672.25 1.242.617 1.71 1.101a4.879 4.879 0 0 1 1.079 1.77c.258.695.39 1.496.398 2.402l-.703.211ZM60.63 15.06c-.094-1.18-.445-2.075-1.055-2.684-.61-.61-1.437-.914-2.484-.914-.492 0-.942.086-1.348.258a3.169 3.169 0 0 0-1.066.703 3.52 3.52 0 0 0-.75 1.101c-.188.438-.317.95-.387 1.536h7.09Zm9.363-3.598c-.531 0-1.015.101-1.453.305a3.142 3.142 0 0 0-1.125.843c-.305.368-.543.82-.715 1.36a5.896 5.896 0 0 0-.246 1.746c0 .633.082 1.203.246 1.71.172.5.41.93.715 1.29a3.2 3.2 0 0 0 1.125.832c.438.187.93.281 1.477.281.539 0 1.027-.101 1.465-.305a3.153 3.153 0 0 0 1.113-.855c.312-.367.554-.809.726-1.324.172-.516.258-1.09.258-1.723a5.2 5.2 0 0 0-.258-1.676 3.941 3.941 0 0 0-.726-1.324 3.062 3.062 0 0 0-1.137-.855 3.437 3.437 0 0 0-1.465-.305Zm3.668-.996 1.043.047c.344.008.691.011 1.043.011h.797c.234-.007.465-.011.691-.011v1.043c-.43 0-.765.015-1.007.047-.235.023-.41.07-.528.14a.387.387 0 0 0-.199.27 2.15 2.15 0 0 0-.035.433v7.828c0 1.094-.133 2.008-.399 2.743-.257.734-.632 1.32-1.125 1.757-.484.446-1.078.758-1.78.938-.696.187-1.485.281-2.368.281-.828 0-1.613-.09-2.356-.27a7.592 7.592 0 0 1-2.074-.808l.094-2.46a.831.831 0 0 0 .2.01h.269c.11 0 .207-.003.293-.01.101 0 .207-.005.316-.013.07.47.192.856.363 1.16.18.305.407.547.68.727.281.18.606.305.973.375.375.078.793.117 1.254.117.492 0 .96-.066 1.406-.199a3.101 3.101 0 0 0 1.183-.61c.344-.28.618-.648.82-1.1.204-.454.305-1.009.305-1.665V19.09a4.384 4.384 0 0 1-1.687 1.43c-.672.32-1.434.48-2.285.48-.774 0-1.477-.125-2.11-.375a4.812 4.812 0 0 1-1.617-1.078 4.9 4.9 0 0 1-1.043-1.664c-.242-.656-.363-1.383-.363-2.18 0-.805.125-1.543.375-2.215a5.135 5.135 0 0 1 1.067-1.722 4.67 4.67 0 0 1 1.628-1.125 5.368 5.368 0 0 1 2.098-.399c.875 0 1.652.184 2.332.551.68.36 1.262.89 1.746 1.594v-1.922Zm14.238 7.91c0 .406.012.719.036.938.03.21.085.367.164.468a.476.476 0 0 0 .328.164c.148.008.34.012.574.012h.527V21c-.617 0-1.23.004-1.84.012-.601.008-1.164.02-1.687.035V19.44a4.578 4.578 0 0 1-1.676 1.36c-.64.297-1.39.445-2.25.445A4.45 4.45 0 0 1 80.551 21a3.43 3.43 0 0 1-1.16-.656 2.987 2.987 0 0 1-.75-1.008 3.167 3.167 0 0 1-.258-1.29c0-.5.101-.952.305-1.358.203-.415.5-.766.89-1.055a4.34 4.34 0 0 1 1.418-.668c.563-.164 1.203-.246 1.922-.246.492 0 .988.039 1.488.117.5.07 1.008.172 1.524.305v-1.688c0-.71-.239-1.254-.715-1.629-.469-.375-1.192-.562-2.168-.562-.82 0-1.465.16-1.934.48-.46.313-.77.801-.925 1.465l-1.079-.129.153-2.062a8.52 8.52 0 0 1 1.746-.551 10.52 10.52 0 0 1 2.261-.223c.829 0 1.536.074 2.122.223.586.148 1.062.375 1.43.68.374.304.648.695.82 1.171.171.47.257 1.024.257 1.664v4.395Zm-4.535-2.672c-.469 0-.89.055-1.265.164-.375.102-.696.25-.961.445a2.022 2.022 0 0 0-.598.715 2.12 2.12 0 0 0-.21.961c0 .32.054.606.163.856.117.242.277.449.48.62.212.173.462.31.75.411.29.102.606.148.95.14a3.61 3.61 0 0 0 1.137-.163c.39-.125.742-.297 1.054-.516.313-.227.567-.508.762-.844.203-.344.305-.754.305-1.23v-1.149a12.393 12.393 0 0 0-1.336-.304 7.483 7.483 0 0 0-1.23-.106Zm6.868 4.254c.437 0 .777-.008 1.019-.023.242-.016.422-.047.54-.094.116-.047.187-.11.21-.188.023-.078.035-.18.035-.304V11.94a.3.3 0 0 0-.082-.222c-.047-.055-.137-.094-.27-.117a3.026 3.026 0 0 0-.527-.036 25.472 25.472 0 0 0-.867-.011v-1.043c.695 0 1.336-.004 1.922-.012.586-.008 1.16-.023 1.723-.047v1.652a5.414 5.414 0 0 1 1.828-1.37 5.362 5.362 0 0 1 2.215-.493c1.14.008 2.015.32 2.625.938.609.61.914 1.578.914 2.906v5.39c0 .126.027.22.082.282.054.062.144.11.269.14a3.9 3.9 0 0 0 .516.047c.211 0 .469.004.773.012V21h-1.77a104.36 104.36 0 0 0-.739-.023c-.57 0-1.082.003-1.535.011-.453.008-.906.012-1.36.012v-1.043c.446 0 .79-.008 1.032-.023a2.12 2.12 0 0 0 .528-.082c.109-.047.171-.102.187-.165a.868.868 0 0 0 .035-.269v-4.652c0-.524-.031-.996-.094-1.418-.054-.43-.164-.782-.328-1.055a1.456 1.456 0 0 0-.656-.61c-.273-.14-.629-.214-1.066-.222a3.444 3.444 0 0 0-1.16.21 4.353 4.353 0 0 0-.95.493c-.273.188-.515.39-.726.61-.203.21-.38.41-.528.597a44.06 44.06 0 0 0-.035 1.781v4.254c0 .14.031.25.094.328.07.07.176.125.316.164a3.3 3.3 0 0 0 .551.059h.82V21h-1.875a82.982 82.982 0 0 0-.773-.023c-.586 0-1.106.003-1.559.011a77.63 77.63 0 0 1-1.335.012v-1.043Zm19.734-9.715c.82 0 1.574.13 2.262.387a4.962 4.962 0 0 1 2.929 2.871c.274.688.41 1.441.41 2.262a5.93 5.93 0 0 1-.41 2.215 5.069 5.069 0 0 1-1.148 1.746 5.115 5.115 0 0 1-1.77 1.125c-.687.265-1.445.398-2.273.398-.828 0-1.586-.129-2.274-.387a5.142 5.142 0 0 1-1.757-1.125 5.195 5.195 0 0 1-1.149-1.757 6.105 6.105 0 0 1-.398-2.215c0-.82.136-1.57.41-2.25a5.044 5.044 0 0 1 1.148-1.758 4.924 4.924 0 0 1 1.758-1.125 6.399 6.399 0 0 1 2.262-.387Zm0 1.219a3.47 3.47 0 0 0-1.477.305 3.277 3.277 0 0 0-1.125.855c-.304.367-.539.82-.703 1.36a5.982 5.982 0 0 0-.246 1.769c0 .61.082 1.184.246 1.723.172.53.41.988.715 1.37.313.376.687.665 1.125.868.438.203.926.305 1.465.305s1.027-.102 1.465-.305a3.214 3.214 0 0 0 1.125-.867c.312-.383.55-.84.715-1.371.171-.54.257-1.114.257-1.723 0-.64-.086-1.23-.257-1.77-.165-.539-.403-.992-.715-1.359a3.133 3.133 0 0 0-1.125-.855 3.44 3.44 0 0 0-1.465-.305Zm12.855 0c-.531 0-1.015.101-1.453.305a3.15 3.15 0 0 0-1.125.843c-.304.368-.543.82-.715 1.36a5.896 5.896 0 0 0-.246 1.746c0 .633.082 1.203.246 1.71.172.5.411.93.715 1.29a3.2 3.2 0 0 0 1.125.832c.438.187.93.281 1.477.281.539 0 1.027-.101 1.465-.305a3.159 3.159 0 0 0 1.113-.855c.312-.367.555-.809.726-1.324.172-.516.258-1.09.258-1.723 0-.61-.086-1.168-.258-1.676a3.932 3.932 0 0 0-.726-1.324 3.069 3.069 0 0 0-1.137-.855 3.437 3.437 0 0 0-1.465-.305Zm3.668-.996 1.043.047c.344.008.692.011 1.043.011h.797c.234-.007.465-.011.691-.011v1.043c-.429 0-.765.015-1.007.047-.235.023-.41.07-.528.14a.39.39 0 0 0-.199.27c-.023.11-.035.254-.035.433v7.828c0 1.094-.133 2.008-.398 2.743-.258.734-.633 1.32-1.125 1.757-.485.446-1.079.758-1.782.938-.695.187-1.484.281-2.367.281a9.96 9.96 0 0 1-2.355-.27 7.592 7.592 0 0 1-2.075-.808l.094-2.46a.832.832 0 0 0 .199.01h.27c.109 0 .207-.003.293-.01.101 0 .207-.005.316-.013.071.47.192.856.364 1.16.179.305.406.547.679.727.282.18.606.305.973.375.375.078.793.117 1.254.117.492 0 .961-.066 1.406-.199a3.105 3.105 0 0 0 1.184-.61c.343-.28.617-.648.82-1.1.203-.454.305-1.009.305-1.665V19.09a4.388 4.388 0 0 1-1.688 1.43c-.672.32-1.433.48-2.285.48-.773 0-1.477-.125-2.109-.375a4.825 4.825 0 0 1-1.618-1.078 4.904 4.904 0 0 1-1.043-1.664c-.242-.656-.363-1.383-.363-2.18 0-.805.125-1.543.375-2.215a5.127 5.127 0 0 1 1.067-1.722 4.67 4.67 0 0 1 1.628-1.125 5.373 5.373 0 0 1 2.098-.399c.875 0 1.652.184 2.332.551.68.36 1.262.89 1.746 1.594v-1.922Zm13.032 2.25h-.704c-.156-.375-.351-.63-.586-.762-.234-.14-.554-.21-.96-.21-.383 0-.735.089-1.055.269-.32.18-.598.437-.832.773a3.83 3.83 0 0 0-.551 1.195 6.252 6.252 0 0 0-.199 1.547c-.008.008-.012.106-.012.293 0 .18-.004.407-.012.68v2.801c0 .164.032.293.094.387.07.085.184.152.34.199.156.039.363.062.621.07h.949V21h-.726a20.84 20.84 0 0 0-.715-.012h-.797a32.279 32.279 0 0 0-1.699 0h-.668c-.203 0-.403.004-.598.012h-.609v-1.043c.445 0 .789-.008 1.031-.023.25-.024.434-.063.551-.118.117-.054.183-.132.199-.234.023-.102.035-.23.035-.387v-7.101a.548.548 0 0 0-.07-.305c-.039-.078-.125-.133-.258-.164a1.904 1.904 0 0 0-.539-.059 27.042 27.042 0 0 0-.891-.011v-1.043c.086 0 .219.004.399.011h1.242c.328 0 .656-.007.984-.023.336-.016.68-.027 1.032-.035v2.133a4.27 4.27 0 0 1 1.558-1.723c.672-.422 1.465-.633 2.379-.633.344 0 .699.024 1.067.07v2.403Zm10.839 5.66c0 .406.012.719.036.938.031.21.085.367.164.468a.475.475 0 0 0 .328.164c.148.008.34.012.574.012h.527V21c-.617 0-1.23.004-1.84.012-.601.008-1.164.02-1.687.035V19.44a4.576 4.576 0 0 1-1.676 1.36c-.64.297-1.39.445-2.25.445a4.45 4.45 0 0 1-1.523-.246 3.427 3.427 0 0 1-1.16-.656 2.969 2.969 0 0 1-.75-1.008 3.164 3.164 0 0 1-.258-1.29c0-.5.101-.952.304-1.358.204-.415.5-.766.891-1.055a4.34 4.34 0 0 1 1.418-.668c.563-.164 1.203-.246 1.922-.246.492 0 .988.039 1.488.117.5.07 1.008.172 1.524.305v-1.688c0-.71-.239-1.254-.715-1.629-.469-.375-1.192-.562-2.168-.562-.82 0-1.465.16-1.934.48-.461.313-.769.801-.926 1.465l-1.078-.129.153-2.062c.5-.227 1.082-.41 1.746-.551a10.52 10.52 0 0 1 2.261-.223c.829 0 1.536.074 2.122.223.586.148 1.062.375 1.429.68.375.304.649.695.821 1.171.171.47.257 1.024.257 1.664v4.395Zm-4.535-2.672c-.469 0-.89.055-1.265.164-.375.102-.696.25-.961.445a2.026 2.026 0 0 0-.598.715 2.115 2.115 0 0 0-.211.961c0 .32.055.606.164.856.117.242.277.449.481.62.211.173.461.31.75.411.289.102.605.148.949.14a3.61 3.61 0 0 0 1.137-.163c.39-.125.742-.297 1.054-.516.313-.227.567-.508.762-.844.203-.344.305-.754.305-1.23v-1.149a12.394 12.394 0 0 0-1.336-.304 7.485 7.485 0 0 0-1.231-.106Zm13.617-4.148c-.539 0-1.027.097-1.464.293a3.12 3.12 0 0 0-1.102.832c-.297.36-.527.8-.691 1.324a5.708 5.708 0 0 0-.246 1.734c0 .657.082 1.25.246 1.782.171.53.41.98.714 1.347.313.36.688.64 1.125.844.446.203.942.305 1.489.305a3.58 3.58 0 0 0 1.476-.293 3.094 3.094 0 0 0 1.114-.832c.312-.36.55-.801.714-1.325.164-.53.246-1.132.246-1.804 0-.649-.085-1.23-.257-1.746a3.661 3.661 0 0 0-.715-1.325 3.092 3.092 0 0 0-1.149-.843 3.693 3.693 0 0 0-1.5-.293Zm-7.136 13.125c.429-.008.761-.028.996-.059.242-.023.418-.066.527-.129.117-.055.188-.125.211-.21.023-.087.035-.196.035-.329V12.047c0-.125-.035-.219-.105-.281a.494.494 0 0 0-.293-.141 2.778 2.778 0 0 0-.516-.059 20.283 20.283 0 0 0-.738-.011v-1.043h1.769c.579 0 1.161-.02 1.747-.059l.023 1.934a4.132 4.132 0 0 1 1.629-1.547c.687-.375 1.48-.563 2.379-.563a5.25 5.25 0 0 1 2.074.399c.625.258 1.16.625 1.605 1.101a4.95 4.95 0 0 1 1.032 1.711c.25.657.375 1.387.375 2.192 0 .851-.125 1.613-.375 2.285a5.182 5.182 0 0 1-1.032 1.746 4.493 4.493 0 0 1-1.617 1.137c-.625.265-1.32.398-2.086.398-.859 0-1.613-.16-2.261-.48a4.27 4.27 0 0 1-1.618-1.395L156.043 24c0 .172.023.3.07.387a.4.4 0 0 0 .246.199c.118.047.274.074.469.082.203.008.453.012.75.012h.41v1.054c-.07 0-.187-.004-.351-.011h-5.004a7.706 7.706 0 0 1-.328.011V24.68Zm23.496-9.914c0-.57-.031-1.067-.094-1.489-.055-.421-.164-.765-.328-1.03a1.39 1.39 0 0 0-.656-.599c-.274-.125-.633-.187-1.078-.187-.422 0-.817.066-1.184.2a3.985 3.985 0 0 0-.973.515 4.666 4.666 0 0 0-.738.656 4.176 4.176 0 0 0-.504.645v5.976c0 .125.027.223.082.293.055.07.149.121.281.152.133.032.313.051.539.059h.879V21H170c-.25-.008-.523-.016-.82-.023-.274 0-.528.003-.762.011h-.68c-.211 0-.418.004-.621.012h-.621v-1.043c.438 0 .777-.008 1.02-.023.242-.024.418-.055.527-.094.117-.047.187-.106.211-.176.023-.078.035-.172.035-.281V7.37a.313.313 0 0 0-.129-.27.663.663 0 0 0-.351-.14 2.669 2.669 0 0 0-.539-.047 19.188 19.188 0 0 0-.704-.012V5.848c.141 0 .286.004.434.011h.539c.43 0 .867-.004 1.313-.011.445-.016.906-.032 1.382-.047v1.465c.008.523.012 1.058.012 1.605v3.07c.563-.586 1.184-1.015 1.863-1.289.688-.273 1.446-.41 2.274-.41.726 0 1.312.113 1.758.34.445.227.789.566 1.031 1.02.242.445.402 1.003.48 1.675.086.672.129 1.457.129 2.356v3.62c0 .18.028.317.082.411a.503.503 0 0 0 .27.211c.133.04.305.063.515.07.211.008.477.012.797.012V21h-1.91a82.982 82.982 0 0 0-.773-.023c-.563 0-1.055.003-1.477.011a64.91 64.91 0 0 1-1.254.012v-1.043c.344-.008.629-.02.856-.035.226-.016.406-.043.539-.082.14-.047.238-.113.293-.2a.656.656 0 0 0 .082-.35v-4.524Zm4.875 9.421.586.094c.156.024.316.043.48.059.164.015.301.023.41.023.164 0 .317-.035.457-.105.149-.07.293-.188.434-.352.148-.156.297-.367.445-.633.157-.257.321-.578.492-.96l.446-1.172a891.485 891.485 0 0 0-1.934-4.16c-.25-.524-.496-1.044-.738-1.56-.234-.515-.449-.991-.645-1.429a42.941 42.941 0 0 0-.492-1.09 30.467 30.467 0 0 0-.246-.527 2.986 2.986 0 0 0-.234-.434.753.753 0 0 0-.246-.246.705.705 0 0 0-.34-.117 4.868 4.868 0 0 0-.539-.023h-.422v-1.043c.445 0 .883.004 1.312.011a69.386 69.386 0 0 0 2.473 0c.469-.007.996-.011 1.582-.011v1.043h-1.031c-.211 0-.379.039-.504.117-.117.07-.18.2-.188.387.008.156.043.332.106.527.062.195.137.398.222.61.094.202.188.41.282.62.101.204.195.399.281.586l2.238 4.782c.313-.79.625-1.567.938-2.332.133-.329.269-.665.41-1.008a76.09 76.09 0 0 0 .82-2.063c.133-.328.254-.625.364-.89.07-.172.125-.32.164-.446.039-.125.062-.242.07-.351a.571.571 0 0 0-.082-.281c-.039-.07-.117-.126-.235-.165a1.886 1.886 0 0 0-.503-.07 12.544 12.544 0 0 0-.856-.023v-1.043c.406 0 .797.004 1.172.011.383.008.762.012 1.137.012.414 0 .84-.004 1.277-.012a75.02 75.02 0 0 1 1.336-.011v1.043c-.336 0-.602.011-.797.035a.965.965 0 0 0-.457.164.885.885 0 0 0-.293.351c-.078.149-.176.352-.293.61l-4.043 9.539a16.939 16.939 0 0 1-.797 1.664c-.25.445-.504.8-.761 1.066a2.222 2.222 0 0 1-.821.575 2.476 2.476 0 0 1-.961.175 3 3 0 0 1-.527-.047 7.037 7.037 0 0 1-.504-.105 4.05 4.05 0 0 1-.527-.152l.082-1.242Z"
    fill="#000"
  />
</svg>
